<svg xmlns="http://www.w3.org/2000/svg" viewBox="0 0 700 520"><defs><linearGradient id="bg" x1="0" y1="0" x2="1" y2="1"><stop stop-color="#fff9dc"/><stop offset="1" stop-color="#ffe37a"/></linearGradient><linearGradient id="box" x1="0" y1="0" x2="1" y2="1"><stop stop-color="#e7c99b"/><stop offset="1" stop-color="#b68a50"/></linearGradient><filter id="sh"><feDropShadow dx="0" dy="16" stdDeviation="14" flood-opacity=".18"/></filter></defs><rect width="700" height="520" rx="36" fill="url(#bg)"/><circle cx="570" cy="95" r="170" fill="#fff" opacity=".45"/><circle cx="105" cy="455" r="130" fill="#ffd21c" opacity=".22"/><g filter="url(#sh)" transform="translate(285 55)"><path d="M0 55 150 0l170 55-165 62z" fill="#d4ae75"/><path d="M0 55v180l155 70V117z" fill="url(#box)"/><path d="m320 55-165 62v188l165-73z" fill="#c0955c"/><path d="m0 55 155 62 165-62-170-55z" fill="#edcf9e"/><g transform="translate(103 118)"><rect width="112" height="70" rx="12" fill="#111"/><text x="56" y="31" fill="#ffc400" text-anchor="middle" font-family="Arial" font-size="25" font-weight="900">2P</text><text x="56" y="54" fill="#fff" text-anchor="middle" font-family="Arial" font-size="18" font-weight="900">BOX</text></g></g><g filter="url(#sh)" transform="translate(470 245) rotate(-3)"><rect width="125" height="155" rx="18" fill="#111"/><path d="M36 35c0-35 53-35 53 0" fill="none" stroke="#ffc400" stroke-width="10"/><rect x="24" y="70" width="77" height="53" rx="8" fill="#ffc400"/><text x="62" y="92" fill="#111" text-anchor="middle" font-family="Arial" font-size="16" font-weight="900">2P</text><text x="62" y="111" fill="#111" text-anchor="middle" font-family="Arial" font-size="13" font-weight="900">BOX</text></g><g filter="url(#sh)" transform="translate(55 335)"><rect width="120" height="90" rx="18" fill="#ffc400"/><path d="M28 31h64v43H28z" fill="#fff" opacity=".9"/><path d="M39 31c0-23 42-23 42 0" fill="none" stroke="#111" stroke-width="7"/><text x="60" y="61" fill="#111" text-anchor="middle" font-family="Arial" font-size="15" font-weight="900">2P BOX</text></g><g filter="url(#sh)" transform="translate(245 300) rotate(7)"><rect width="125" height="145" rx="20" fill="#fff"/><rect x="20" y="22" width="85" height="55" rx="10" fill="#eee"/><circle cx="62" cy="112" r="18" fill="#222"/><path d="M62 93v38" stroke="#222" stroke-width="7"/></g><g transform="translate(405 405)"><rect width="105" height="65" rx="16" fill="#111"/><circle cx="34" cy="33" r="13" fill="#333"/><path d="M55 26h32M55 39h24" stroke="#ffc400" stroke-width="5" stroke-linecap="round"/></g></svg>